HIERARCHY
ROOT Hips
{
	OFFSET 0.000000 0.000000 0.000000 
	CHANNELS 6 Xposition Yposition Zposition Zrotation Yrotation Xrotation
	JOINT LeftUpLeg
	{
		OFFSET 1.363060 -1.794630 0.839290 
		CHANNELS 3 Zrotation Yrotation Xrotation
		JOINT LeftLeg
		{
			OFFSET 2.448110 -6.726130 0.000000 
			CHANNELS 3 Zrotation Yrotation Xrotation
			JOINT LeftFoot
			{
				OFFSET 2.562200 -7.039590 0.000000 
				CHANNELS 3 Zrotation Yrotation Xrotation
				JOINT LeftToeBase
				{
					OFFSET 0.157640 -0.433110 2.322550 
					CHANNELS 3 Zrotation Yrotation Xrotation
					End Site
					{
						OFFSET 0.000000 0.000000 0.000000 
					}
				}
			}
		}
	}
	JOINT RightUpLeg
	{
		OFFSET -1.305520 -1.794630 0.839290 
		CHANNELS 3 Zrotation Yrotation Xrotation
		JOINT RightLeg
		{
			OFFSET -2.542530 -6.985550 0.000000 
			CHANNELS 3 Zrotation Yrotation Xrotation
			JOINT RightFoot
			{
				OFFSET -2.568260 -7.056230 0.000000 
				CHANNELS 3 Zrotation Yrotation Xrotation
				JOINT RightToeBase
				{
					OFFSET -0.164730 -0.452590 2.363150 
					CHANNELS 3 Zrotation Yrotation Xrotation
					End Site
					{
						OFFSET 0.000000 0.000000 0.000000 
					}
				}
			}
		}
	}
	JOINT Spine
	{
		OFFSET 0.028270 2.035590 -0.193380 
		CHANNELS 3 Zrotation Yrotation Xrotation
		JOINT Spine1
		{
			OFFSET 0.056720 2.048850 -0.042750 
			CHANNELS 3 Zrotation Yrotation Xrotation
			JOINT Neck1
			{
				OFFSET -0.054170 1.746240 0.172020 
				CHANNELS 3 Zrotation Yrotation Xrotation
				JOINT Head
				{
					OFFSET 0.104070 1.761360 -0.123970 
					CHANNELS 3 Zrotation Yrotation Xrotation
					End Site
					{
						OFFSET 0.000000 0.000000 0.000000 
					}
				}
			}
			JOINT LeftArm
			{
				OFFSET 3.362410 1.200890 -0.311210 
				CHANNELS 3 Zrotation Yrotation Xrotation
				JOINT LeftForeArm
				{
					OFFSET 4.983000 -0.000000 -0.000000 
					CHANNELS 3 Zrotation Yrotation Xrotation
					JOINT LeftHand
					{
						OFFSET 3.483560 -0.000000 -0.000000 
						CHANNELS 3 Zrotation Yrotation Xrotation
						JOINT LeftHandIndex1
						{
							OFFSET 0.715260 -0.000000 -0.000000 
							CHANNELS 3 Zrotation Yrotation Xrotation
							End Site
							{
								OFFSET 0.000000 0.000000 0.000000 
							}
						}
					}
				}
			}
			JOINT RightArm
			{
				OFFSET -3.136600 1.374050 -0.404650 
				CHANNELS 3 Zrotation Yrotation Xrotation
				JOINT RightForeArm
				{
					OFFSET -5.241900 -0.000000 -0.000000 
					CHANNELS 3 Zrotation Yrotation Xrotation
					JOINT RightHand
					{
						OFFSET -3.444170 -0.000000 -0.000000 
						CHANNELS 3 Zrotation Yrotation Xrotation
						JOINT RightHandIndex1
						{
							OFFSET -0.622530 -0.000000 -0.000000 
							CHANNELS 3 Zrotation Yrotation Xrotation
							End Site
							{
								OFFSET 0.000000 0.000000 0.000000 
							}
						}
					}
				}
			}
		}
	}
}
MOTION
Frames: 16
Frame Time: 0.041667
7.772109 17.870389 34.275851 179.557458 -4.445493 -155.082208 -25.561601 -16.903604 -16.898212 -1.190613 4.678166 10.672024 0.731404 -2.218695 -17.955164 2.842000 -10.434800 -30.396500 32.989813 16.268006 -15.272100 1.355602 -3.471952 7.975540 -1.214787 -2.700796 -22.361195 -2.876800 10.492800 -30.587900 1.781938 -1.580313 -5.027977 0.599711 -1.847236 14.311054 8.465563 -8.998185 28.625305 0.791000 -3.825100 6.474400 -105.925903 -7.377040 20.380759 17.310781 -21.521114 -4.303904 -1.712591 0.649942 0.271491 -7.125000 0.000000 0.000000 98.144861 -2.689280 -0.757941 -11.543939 21.398000 -2.918845 1.280895 4.066859 7.937078 7.125000 0.000000 0.000000 
7.770467 17.872468 34.271801 179.610469 -4.424939 -155.014611 -25.487964 -16.889715 -16.952405 -1.192234 4.672848 10.650210 0.729752 -2.251253 -17.983345 2.757600 -10.291900 -29.927300 33.026684 16.353492 -15.306647 1.359738 -3.462324 7.926037 -1.211938 -2.709815 -22.352019 -2.838100 10.428200 -30.374900 1.780766 -1.605140 -5.033444 0.542879 -1.851875 14.309989 8.533466 -8.978035 28.394018 0.798300 -3.804900 6.381900 -105.913642 -7.432581 20.656517 17.471509 -21.750825 -4.396537 -1.712811 0.635761 0.201926 -7.125000 0.000000 0.000000 98.201602 -2.594716 -0.419598 -11.726581 21.661499 -3.000335 1.254448 4.042707 7.616242 7.125000 0.000000 0.000000 
7.768059 17.872687 34.266547 179.612260 -4.329015 -154.985677 -25.524706 -16.857866 -16.910290 -1.199818 4.639608 10.571802 0.743721 -2.184447 -18.041592 2.763300 -10.301700 -29.959400 33.018675 16.172452 -15.348212 1.351991 -3.434556 7.860972 -1.195855 -2.542219 -22.149040 -2.870400 10.482200 -30.552800 1.770874 -1.581676 -5.054191 0.516505 -1.830359 14.221336 8.558761 -9.001016 28.061387 0.796000 -3.819600 6.213000 -105.938760 -7.370679 21.047871 17.629246 -21.976649 -4.490466 -1.723056 0.613589 0.017746 -7.125000 0.000000 0.000000 98.211548 -2.545806 -0.400103 -11.821531 21.782966 -3.036460 1.210540 4.007267 7.537795 7.125000 0.000000 0.000000 
7.765870 17.869951 34.261074 179.457195 -4.189822 -155.065671 -25.801835 -16.767823 -16.750063 -1.202798 4.600892 10.501507 0.752969 -2.138547 -18.057661 2.856400 -10.458900 -30.476000 32.855774 15.812875 -15.273798 1.336618 -3.380879 7.791851 -1.186270 -2.299939 -21.949088 -2.980600 10.663700 -31.153700 1.770221 -1.586244 -5.062760 0.605889 -1.835277 14.136022 8.428232 -9.014483 27.829007 0.745400 -3.834800 6.104800 -106.022018 -7.338877 21.264911 17.740233 -22.135108 -4.560236 -1.715619 0.613922 -0.020795 -7.125000 0.000000 0.000000 98.121875 -2.482068 -0.207857 -11.933821 21.928808 -3.081991 1.173383 4.000799 7.384217 7.125000 0.000000 0.000000 
7.764885 17.867762 34.256696 179.409705 -4.119490 -155.120753 -25.892582 -16.736107 -16.644535 -1.206690 4.569652 10.440398 0.760445 -2.079638 -18.048908 2.826100 -10.408000 -30.308400 32.796792 15.858537 -15.197512 1.334224 -3.380897 7.813312 -1.195712 -2.261822 -22.012336 -3.002200 10.698600 -31.269800 1.783876 -1.621130 -5.067896 0.664623 -1.853420 14.088259 8.350517 -8.972136 27.798868 0.726900 -3.818800 6.102500 -106.067892 -7.336033 21.424981 17.826350 -22.256153 -4.613125 -1.715407 0.622215 0.015962 -7.125000 0.000000 0.000000 98.063468 -2.432266 0.245937 -12.114173 22.185329 -3.164895 1.154270 4.002371 7.021357 7.125000 0.000000 0.000000 
7.762367 17.868090 34.253193 179.484529 -4.062558 -155.092211 -25.811850 -16.763186 -16.606587 -1.216890 4.531169 10.344622 0.776469 -1.964760 -18.074241 2.758000 -10.292600 -29.929600 32.853200 16.053805 -15.220475 1.336899 -3.411737 7.863200 -1.202744 -2.271598 -22.098655 -2.971600 10.649000 -31.105000 1.789358 -1.625192 -5.081572 0.627806 -1.847512 14.040822 8.387029 -8.922982 27.753690 0.748700 -3.798000 6.072600 -106.071845 -7.300251 21.584343 17.900717 -22.367655 -4.662313 -1.709331 0.638649 0.011707 -7.125000 0.000000 0.000000 98.104151 -2.415160 0.613281 -12.285152 22.439126 -3.251238 1.166942 4.012770 6.720736 7.125000 0.000000 0.000000 
7.760506 17.869513 34.251223 179.457573 -3.942002 -155.064776 -25.878075 -16.741903 -16.587930 -1.221021 4.522735 10.326108 0.790504 -1.912156 -18.154751 2.776600 -10.324300 -30.033400 32.782756 16.151012 -15.226281 1.337569 -3.408190 7.843647 -1.202696 -2.267321 -22.103971 -2.955800 10.623100 -31.019100 1.775270 -1.587593 -5.090452 0.619901 -1.829319 13.994933 8.503848 -8.870010 27.683098 0.798300 -3.770900 6.038200 -106.040701 -7.308133 21.768801 17.910659 -22.387494 -4.676103 -1.689735 0.652341 -0.008529 -7.125000 0.000000 0.000000 98.170523 -2.401611 0.870392 -12.456205 22.687163 -3.335807 1.171869 4.029915 6.477590 7.125000 0.000000 0.000000 
7.760068 17.869513 34.250018 179.384629 -3.838006 -155.046907 -25.987142 -16.585127 -16.662028 -1.212804 4.545717 10.385249 0.775217 -2.045649 -18.156375 2.831500 -10.417100 -30.338300 32.661861 16.226094 -15.229185 1.338013 -3.401648 7.823696 -1.205839 -2.270016 -22.137035 -2.942500 10.601400 -30.947200 1.771514 -1.575662 -5.107340 0.667328 -1.828743 13.914855 8.516455 -8.829726 27.663613 0.806200 -3.750500 6.039900 -106.034207 -7.308509 22.065657 17.899416 -22.363141 -4.669857 -1.707395 0.648637 -0.064049 -7.125000 0.000000 0.000000 98.186383 -2.373348 1.087234 -12.625431 22.917549 -3.412080 1.140979 4.029043 6.178104 7.125000 0.000000 0.000000 
7.758755 17.868309 34.246406 179.367176 -3.762799 -155.056711 -26.034983 -16.427752 -16.664291 -1.208143 4.525931 10.347152 0.753485 -2.161067 -18.059428 2.754100 -10.285900 -29.907600 32.645545 16.143530 -15.174762 1.337020 -3.356991 7.729535 -1.200758 -2.209873 -22.059771 -2.940600 10.598200 -30.936400 1.784708 -1.589245 -5.122340 0.717473 -1.834356 13.845494 8.388559 -8.785237 27.554387 0.756100 -3.732700 5.985500 -106.092800 -7.215769 22.414725 17.947138 -22.422770 -4.696109 -1.750362 0.640085 -0.061030 -7.125000 0.000000 0.000000 98.146071 -2.332760 1.389196 -12.795880 23.149443 -3.490451 1.103574 4.038174 5.782689 7.125000 0.000000 0.000000 
7.757003 17.869294 34.241152 179.353066 -3.660068 -155.101006 -26.105269 -16.351073 -16.558783 -1.213663 4.480046 10.250809 0.759722 -2.101179 -18.035152 2.753900 -10.285600 -29.906700 32.665692 15.811313 -14.991795 1.333795 -3.198055 7.389442 -1.178268 -1.998351 -21.747467 -2.962100 10.633500 -31.053600 1.781845 -1.572990 -5.114635 0.713418 -1.824181 13.857990 8.334431 -8.753817 27.425933 0.727400 -3.715100 5.928700 -106.115469 -7.179098 22.631767 17.957563 -22.439086 -4.704841 -1.768846 0.656476 0.015466 -7.125000 0.000000 0.000000 98.145940 -2.271022 1.758489 -12.978991 23.408103 -3.580387 1.085821 4.056070 5.388311 7.125000 0.000000 0.000000 
7.753829 17.869951 34.235022 179.263439 -3.585811 -155.073559 -26.252104 -16.358132 -16.503317 -1.218085 4.462104 10.207650 0.771719 -2.047781 -18.090083 2.804900 -10.372300 -30.191100 32.506869 16.066519 -15.123506 1.327148 -3.340982 7.717977 -1.190997 -2.076252 -21.915051 -2.973700 10.652300 -31.116100 1.768268 -1.555087 -5.098028 0.699037 -1.823592 13.941157 8.390861 -8.753859 27.241145 0.738700 -3.707900 5.861500 -106.115059 -7.302710 22.690079 17.867226 -22.307869 -4.652993 -1.764068 0.663240 0.134266 -7.125000 0.000000 0.000000 98.159557 -2.189065 2.112548 -13.138869 23.627183 -3.656504 1.068972 4.040037 4.973554 7.125000 0.000000 0.000000 
7.750217 17.863712 34.232724 179.229584 -3.364556 -154.795068 -26.276230 -16.460707 -16.743806 -1.230412 4.485179 10.200074 0.799145 -1.862609 -18.190803 2.765500 -10.305400 -29.971600 32.318432 16.271787 -15.605951 1.315912 -3.471955 7.921581 -1.186639 -1.863491 -21.909895 -2.995400 10.687500 -31.233200 1.759691 -1.485450 -5.113853 0.720911 -1.801126 13.997000 8.414516 -8.789904 26.874593 0.733600 -3.722600 5.711100 -106.126875 -7.424042 22.759005 17.756287 -22.145311 -4.588581 -1.760510 0.654228 0.239433 -7.125000 0.000000 0.000000 98.168135 -2.054460 2.279165 -13.230884 23.737959 -3.695792 1.053264 4.009218 4.776303 7.125000 0.000000 0.000000 
7.749013 17.847402 34.242903 179.489373 -2.902730 -154.018245 -25.820003 -16.567897 -17.666219 -1.258966 4.590733 10.269223 0.853393 -1.432857 -18.376037 2.771300 -10.315200 -30.003700 32.259286 16.731040 -16.905724 1.303573 -3.750029 8.253445 -1.161606 -1.376422 -21.820520 -3.027700 10.739700 -31.406900 1.761345 -1.320970 -5.190976 0.688242 -1.738198 13.995431 8.369115 -8.760858 26.970002 0.711300 -3.702900 5.777900 -106.135028 -7.453806 22.832943 17.658960 -22.004879 -4.535215 -1.758601 0.671546 0.306299 -7.125000 0.000000 0.000000 98.214354 -1.842648 2.350338 -13.320780 23.863795 -3.748016 1.062443 4.055176 4.430956 7.125000 0.000000 0.000000 
7.750873 17.860537 34.229768 179.501208 -3.218592 -154.486935 -25.858208 -16.439811 -17.141629 -1.240719 4.528333 10.239869 0.816933 -1.745152 -18.288598 2.778800 -10.328100 -30.045800 32.563231 16.275273 -15.924147 1.320694 -3.437356 7.723018 -1.174677 -1.595434 -21.801963 -2.994500 10.686100 -31.228300 1.791239 -1.471605 -5.154103 0.642947 -1.791506 13.968985 8.309738 -8.684951 27.141328 0.686200 -3.658900 5.869500 -106.122385 -7.444792 22.847075 17.563409 -21.867599 -4.484682 -1.744917 0.695759 0.358157 -7.125000 0.000000 0.000000 98.265907 -1.653934 2.627020 -13.498956 24.133616 -3.860351 1.059548 4.179802 3.348283 7.125000 0.000000 0.000000 
7.747918 17.871374 34.216961 179.460044 -3.538409 -154.861367 -25.968296 -16.425522 -16.666708 -1.226454 4.468880 10.193292 0.785949 -1.980994 -18.183854 2.722300 -10.231300 -29.728900 32.738283 15.890094 -15.104761 1.332922 -3.180908 7.295659 -1.184311 -1.756944 -21.772143 -2.939600 10.596700 -30.931500 1.804194 -1.603823 -5.117130 0.547150 -1.827662 13.987060 8.301304 -8.696997 26.454334 0.653900 -3.663500 5.551200 -106.089489 -7.479287 22.843878 17.436451 -21.690383 -4.414924 -1.735914 0.700169 0.490146 -7.125000 0.000000 0.000000 98.315055 -1.531004 2.765706 -13.599346 24.255219 -3.900238 0.977677 4.188028 3.012030 7.125000 0.000000 0.000000 
7.744853 17.875643 34.208642 179.404758 -3.664947 -155.016605 -26.075990 -16.490731 -16.424825 -1.225062 4.442266 10.167432 0.789208 -1.975320 -18.183828 2.712300 -10.214000 -29.672500 32.732636 15.880540 -14.811220 1.340871 -3.115071 7.202442 -1.190426 -1.949548 -21.826886 -2.888000 10.511400 -30.649300 1.812880 -1.704199 -5.109194 0.493463 -1.876659 13.990525 8.267869 -8.679618 26.856479 0.644900 -3.649300 5.751900 -106.074671 -7.484889 22.815461 17.274293 -21.445693 -4.320359 -1.741185 0.701296 0.763992 -7.125000 0.000000 0.000000 98.331371 -1.504705 2.591120 -13.576852 24.166159 -3.840179 0.861779 4.002828 3.826350 7.125000 0.000000 0.000000 
